<mxfile host="app.diagrams.net" agent="Mozilla/5.0 (Windows NT 10.0; Win64; x64) AppleWebKit/537.36 (KHTML, like Gecko) Chrome/131.0.0.0 Safari/537.36" version="24.9.2">
  <diagram name="페이지-1" id="x3CDRDTqpfboEJPPk2nD">
    <mxGraphModel dx="1221" dy="2017" grid="0" gridSize="10" guides="1" tooltips="1" connect="1" arrows="1" fold="1" page="0" pageScale="1" pageWidth="827" pageHeight="1169" background="#ffffff" math="0" shadow="0">
      <root>
        <mxCell id="0" />
        <mxCell id="1" parent="0" />
        <mxCell id="7Y47-iIJUgCRWdnua4mY-2" value="&lt;b&gt;&lt;font style=&quot;font-size: 14px;&quot;&gt;구매자&lt;/font&gt;&lt;/b&gt;" style="shape=umlActor;verticalLabelPosition=bottom;verticalAlign=top;html=1;outlineConnect=0;" parent="1" vertex="1">
          <mxGeometry x="205" y="-1100" width="30" height="60" as="geometry" />
        </mxCell>
        <mxCell id="7Y47-iIJUgCRWdnua4mY-3" value="" style="rounded=0;whiteSpace=wrap;html=1;" parent="1" vertex="1">
          <mxGeometry x="80" y="-1000" width="600" height="677" as="geometry" />
        </mxCell>
        <mxCell id="7Y47-iIJUgCRWdnua4mY-4" value="" style="rounded=0;whiteSpace=wrap;html=1;" parent="1" vertex="1">
          <mxGeometry x="87" y="-649" width="557.5" height="315" as="geometry" />
        </mxCell>
        <mxCell id="7Y47-iIJUgCRWdnua4mY-5" value="" style="rounded=0;whiteSpace=wrap;html=1;" parent="1" vertex="1">
          <mxGeometry x="215" y="-970" width="10" height="611" as="geometry" />
        </mxCell>
        <mxCell id="7Y47-iIJUgCRWdnua4mY-6" value="" style="rounded=0;whiteSpace=wrap;html=1;" parent="1" vertex="1">
          <mxGeometry x="375" y="-884" width="10" height="524" as="geometry" />
        </mxCell>
        <mxCell id="7Y47-iIJUgCRWdnua4mY-7" value="" style="rounded=0;whiteSpace=wrap;html=1;" parent="1" vertex="1">
          <mxGeometry x="560" y="-940" width="10" height="581" as="geometry" />
        </mxCell>
        <mxCell id="7Y47-iIJUgCRWdnua4mY-8" value="&lt;b&gt;&lt;font style=&quot;font-size: 14px;&quot;&gt;AI시착 모델 생성&lt;/font&gt;&lt;/b&gt;" style="rounded=0;whiteSpace=wrap;html=1;" parent="1" vertex="1">
          <mxGeometry x="335" y="-1070" width="90" height="30" as="geometry" />
        </mxCell>
        <mxCell id="7Y47-iIJUgCRWdnua4mY-9" value="" style="endArrow=none;dashed=1;html=1;rounded=0;entryX=0.5;entryY=1;entryDx=0;entryDy=0;exitX=0.5;exitY=0;exitDx=0;exitDy=0;" parent="1" source="7Y47-iIJUgCRWdnua4mY-6" target="7Y47-iIJUgCRWdnua4mY-8" edge="1">
          <mxGeometry width="50" height="50" relative="1" as="geometry">
            <mxPoint x="550" y="-800" as="sourcePoint" />
            <mxPoint x="600" y="-850" as="targetPoint" />
          </mxGeometry>
        </mxCell>
        <mxCell id="7Y47-iIJUgCRWdnua4mY-10" value="" style="endArrow=none;dashed=1;html=1;rounded=0;" parent="1" source="7Y47-iIJUgCRWdnua4mY-5" edge="1">
          <mxGeometry width="50" height="50" relative="1" as="geometry">
            <mxPoint x="550" y="-800" as="sourcePoint" />
            <mxPoint x="220" y="-1020" as="targetPoint" />
          </mxGeometry>
        </mxCell>
        <mxCell id="7Y47-iIJUgCRWdnua4mY-11" value="&lt;b&gt;&lt;font style=&quot;font-size: 14px;&quot;&gt;서버 인터페이스&lt;/font&gt;&lt;/b&gt;" style="rounded=0;whiteSpace=wrap;html=1;" parent="1" vertex="1">
          <mxGeometry x="513" y="-1070" width="104" height="30" as="geometry" />
        </mxCell>
        <mxCell id="7Y47-iIJUgCRWdnua4mY-12" value="" style="endArrow=none;dashed=1;html=1;rounded=0;entryX=0.5;entryY=1;entryDx=0;entryDy=0;exitX=0.5;exitY=0;exitDx=0;exitDy=0;" parent="1" source="7Y47-iIJUgCRWdnua4mY-7" target="7Y47-iIJUgCRWdnua4mY-11" edge="1">
          <mxGeometry width="50" height="50" relative="1" as="geometry">
            <mxPoint x="550" y="-800" as="sourcePoint" />
            <mxPoint x="600" y="-850" as="targetPoint" />
          </mxGeometry>
        </mxCell>
        <mxCell id="7Y47-iIJUgCRWdnua4mY-13" value="" style="endArrow=classic;html=1;rounded=0;exitX=1.2;exitY=0.152;exitDx=0;exitDy=0;exitPerimeter=0;" parent="1" edge="1">
          <mxGeometry width="50" height="50" relative="1" as="geometry">
            <mxPoint x="228" y="-919.52" as="sourcePoint" />
            <mxPoint x="554" y="-922" as="targetPoint" />
          </mxGeometry>
        </mxCell>
        <mxCell id="7Y47-iIJUgCRWdnua4mY-14" value="&lt;b&gt;&lt;font style=&quot;font-size: 14px;&quot;&gt;장바구니 페이지 요청&lt;/font&gt;&lt;/b&gt;&lt;div&gt;&lt;b&gt;&lt;font style=&quot;font-size: 14px;&quot;&gt;(사용자코드)&lt;/font&gt;&lt;/b&gt;&lt;/div&gt;" style="text;html=1;align=center;verticalAlign=middle;whiteSpace=wrap;rounded=0;" parent="1" vertex="1">
          <mxGeometry x="231" y="-935" width="144" height="30" as="geometry" />
        </mxCell>
        <mxCell id="7Y47-iIJUgCRWdnua4mY-27" value="" style="endArrow=classic;html=1;rounded=0;exitX=-0.112;exitY=0.667;exitDx=0;exitDy=0;exitPerimeter=0;entryX=1.039;entryY=0.618;entryDx=0;entryDy=0;entryPerimeter=0;dashed=1;" parent="1" edge="1">
          <mxGeometry width="50" height="50" relative="1" as="geometry">
            <mxPoint x="558.4900000000001" y="-817.5" as="sourcePoint" />
            <mxPoint x="385.0000000000001" y="-817.4100000000001" as="targetPoint" />
          </mxGeometry>
        </mxCell>
        <mxCell id="7Y47-iIJUgCRWdnua4mY-28" value="&lt;b&gt;&lt;font style=&quot;font-size: 14px;&quot;&gt;Reply Data&lt;/font&gt;&lt;/b&gt;&lt;div&gt;&lt;b&gt;&lt;font style=&quot;font-size: 14px;&quot;&gt;&lt;br&gt;&lt;/font&gt;&lt;/b&gt;&lt;/div&gt;&lt;div&gt;&lt;font style=&quot;font-size: 14px;&quot;&gt;&lt;b&gt;(제품 코드, 제품명, 이미지, 가격&lt;/b&gt;&lt;b style=&quot;background-color: initial;&quot;&gt;)&lt;/b&gt;&lt;/font&gt;&lt;/div&gt;" style="text;html=1;align=center;verticalAlign=middle;whiteSpace=wrap;rounded=0;" parent="1" vertex="1">
          <mxGeometry x="408.01" y="-825" width="130" height="30" as="geometry" />
        </mxCell>
        <mxCell id="7Y47-iIJUgCRWdnua4mY-29" value="" style="endArrow=classic;html=1;rounded=0;exitX=-0.112;exitY=0.667;exitDx=0;exitDy=0;exitPerimeter=0;entryX=1.054;entryY=0.966;entryDx=0;entryDy=0;entryPerimeter=0;dashed=1;" parent="1" edge="1">
          <mxGeometry width="50" height="50" relative="1" as="geometry">
            <mxPoint x="372.5" y="-795" as="sourcePoint" />
            <mxPoint x="223.5" y="-795" as="targetPoint" />
          </mxGeometry>
        </mxCell>
        <mxCell id="7Y47-iIJUgCRWdnua4mY-30" value="&lt;b&gt;&lt;font style=&quot;font-size: 14px;&quot;&gt;제품 상세 정보 화면&lt;/font&gt;&lt;/b&gt;" style="text;html=1;align=center;verticalAlign=middle;whiteSpace=wrap;rounded=0;" parent="1" vertex="1">
          <mxGeometry x="235" y="-825" width="130" height="30" as="geometry" />
        </mxCell>
        <mxCell id="7Y47-iIJUgCRWdnua4mY-32" value="OPT&lt;span style=&quot;color: rgba(0, 0, 0, 0); font-family: monospace; font-size: 0px; text-align: start; text-wrap: nowrap;&quot;&gt;%3CmxGraphModel%3E%3Croot%3E%3CmxCell%20id%3D%220%22%2F%3E%3CmxCell%20id%3D%221%22%20parent%3D%220%22%2F%3E%3CmxCell%20id%3D%222%22%20value%3D%22%ED%9A%8C%EC%9B%90%EA%B0%80%EC%9E%85%20%EC%9A%94%EC%B2%AD%26lt%3Bdiv%26gt%3B(ID%2C%20%EB%B9%84%EB%B0%80%EB%B2%88%ED%98%B8%2C%20%EB%8B%89%EB%84%A4%EC%9E%84%2C%20%EC%9D%B4%EB%A6%84%2C%20%EC%84%B1%EB%B3%84%2C%20%EC%9D%B4%EB%A9%94%EC%9D%BC)%26lt%3B%2Fdiv%26gt%3B%22%20style%3D%22text%3Bhtml%3D1%3Balign%3Dcenter%3BverticalAlign%3Dmiddle%3BwhiteSpace%3Dwrap%3Brounded%3D0%3B%22%20vertex%3D%221%22%20parent%3D%221%22%3E%3CmxGeometry%20x%3D%22235%22%20y%3D%22-820%22%20width%3D%22125%22%20height%3D%2230%22%20as%3D%22geometry%22%2F%3E%3C%2FmxCell%3E%3C%2Froot%3E%3C%2FmxGraphModel%3E&lt;/span&gt;" style="shape=delay;whiteSpace=wrap;html=1;" parent="1" vertex="1">
          <mxGeometry x="80" y="-1000" width="80" height="30" as="geometry" />
        </mxCell>
        <mxCell id="7Y47-iIJUgCRWdnua4mY-33" value="ALT" style="shape=delay;whiteSpace=wrap;html=1;" parent="1" vertex="1">
          <mxGeometry x="87" y="-649" width="80" height="30" as="geometry" />
        </mxCell>
        <mxCell id="aqkRpfTvIbTsVpuNfiw0-12" value="&lt;b style=&quot;&quot;&gt;&lt;font style=&quot;font-size: 14px;&quot;&gt;[이미지 생성 = YES]&lt;/font&gt;&lt;/b&gt;" style="text;html=1;align=center;verticalAlign=middle;whiteSpace=wrap;rounded=0;fontColor=#3333FF;" parent="1" vertex="1">
          <mxGeometry x="225" y="-643" width="145" height="30" as="geometry" />
        </mxCell>
        <mxCell id="aqkRpfTvIbTsVpuNfiw0-24" value="" style="endArrow=none;dashed=1;html=1;rounded=0;" parent="1" edge="1">
          <mxGeometry width="50" height="50" relative="1" as="geometry">
            <mxPoint x="638" y="-451" as="sourcePoint" />
            <mxPoint x="128" y="-451" as="targetPoint" />
          </mxGeometry>
        </mxCell>
        <mxCell id="aqkRpfTvIbTsVpuNfiw0-33" value="" style="rounded=0;whiteSpace=wrap;html=1;" parent="1" vertex="1">
          <mxGeometry x="802" y="-941" width="10" height="589" as="geometry" />
        </mxCell>
        <mxCell id="aqkRpfTvIbTsVpuNfiw0-35" value="" style="endArrow=none;dashed=1;html=1;rounded=0;entryX=0.5;entryY=1;entryDx=0;entryDy=0;exitX=0.5;exitY=0;exitDx=0;exitDy=0;" parent="1" source="aqkRpfTvIbTsVpuNfiw0-33" edge="1">
          <mxGeometry width="50" height="50" relative="1" as="geometry">
            <mxPoint x="792" y="-791" as="sourcePoint" />
            <mxPoint x="807" y="-1031" as="targetPoint" />
          </mxGeometry>
        </mxCell>
        <mxCell id="aqkRpfTvIbTsVpuNfiw0-36" value="&lt;b&gt;&lt;font style=&quot;font-size: 14px;&quot;&gt;Server DB&lt;/font&gt;&lt;/b&gt;" style="shape=cylinder3;whiteSpace=wrap;html=1;boundedLbl=1;backgroundOutline=1;size=15;" parent="1" vertex="1">
          <mxGeometry x="777" y="-1089" width="60" height="57" as="geometry" />
        </mxCell>
        <mxCell id="aqkRpfTvIbTsVpuNfiw0-40" value="" style="endArrow=classic;html=1;rounded=0;" parent="1" edge="1">
          <mxGeometry width="50" height="50" relative="1" as="geometry">
            <mxPoint x="566" y="-899.5" as="sourcePoint" />
            <mxPoint x="796" y="-899" as="targetPoint" />
          </mxGeometry>
        </mxCell>
        <mxCell id="aqkRpfTvIbTsVpuNfiw0-41" value="&lt;b&gt;&lt;font style=&quot;font-size: 14px;&quot;&gt;DB API&lt;/font&gt;&lt;/b&gt;" style="text;html=1;align=center;verticalAlign=middle;whiteSpace=wrap;rounded=0;" parent="1" vertex="1">
          <mxGeometry x="570" y="-930" width="150" height="30" as="geometry" />
        </mxCell>
        <mxCell id="aqkRpfTvIbTsVpuNfiw0-42" value="&lt;b&gt;&lt;font style=&quot;font-size: 14px;&quot;&gt;Return Data&lt;/font&gt;&lt;/b&gt;" style="text;html=1;align=center;verticalAlign=middle;whiteSpace=wrap;rounded=0;" parent="1" vertex="1">
          <mxGeometry x="675" y="-879" width="90" height="30" as="geometry" />
        </mxCell>
        <mxCell id="aqkRpfTvIbTsVpuNfiw0-43" value="" style="endArrow=classic;html=1;rounded=0;entryX=1.039;entryY=0.618;entryDx=0;entryDy=0;entryPerimeter=0;dashed=1;" parent="1" edge="1">
          <mxGeometry width="50" height="50" relative="1" as="geometry">
            <mxPoint x="796" y="-879" as="sourcePoint" />
            <mxPoint x="577.5100000000001" y="-878.9100000000001" as="targetPoint" />
          </mxGeometry>
        </mxCell>
        <mxCell id="aqkRpfTvIbTsVpuNfiw0-48" value="&lt;b style=&quot;&quot;&gt;&lt;font style=&quot;font-size: 14px;&quot;&gt;[로그인 = YES]&lt;/font&gt;&lt;/b&gt;" style="text;html=1;align=center;verticalAlign=middle;whiteSpace=wrap;rounded=0;fontColor=#3333FF;" parent="1" vertex="1">
          <mxGeometry x="218" y="-991" width="145" height="30" as="geometry" />
        </mxCell>
        <mxCell id="aqkRpfTvIbTsVpuNfiw0-50" value="" style="endArrow=classic;html=1;rounded=0;exitX=1.2;exitY=0.152;exitDx=0;exitDy=0;exitPerimeter=0;" parent="1" edge="1">
          <mxGeometry width="50" height="50" relative="1" as="geometry">
            <mxPoint x="225" y="-741.52" as="sourcePoint" />
            <mxPoint x="371" y="-742" as="targetPoint" />
          </mxGeometry>
        </mxCell>
        <mxCell id="aqkRpfTvIbTsVpuNfiw0-51" value="&lt;b&gt;&lt;font style=&quot;font-size: 14px;&quot;&gt;AI시착 이미지 &lt;/font&gt;&lt;font style=&quot;font-size: 14px;&quot;&gt;생성 요청&lt;/font&gt;&lt;/b&gt;" style="text;html=1;align=center;verticalAlign=middle;whiteSpace=wrap;rounded=0;" parent="1" vertex="1">
          <mxGeometry x="223.5" y="-764" width="159" height="30" as="geometry" />
        </mxCell>
        <mxCell id="aqkRpfTvIbTsVpuNfiw0-54" value="&lt;b&gt;&lt;font style=&quot;font-size: 14px;&quot;&gt;AI시착 이미지 생성 요청&lt;/font&gt;&lt;/b&gt;&lt;div&gt;&lt;div&gt;&lt;b&gt;&lt;font style=&quot;font-size: 14px;&quot;&gt;(상의 이미지, 하의 이미지,&lt;/font&gt;&lt;/b&gt;&lt;b style=&quot;background-color: initial;&quot;&gt;&lt;font style=&quot;font-size: 14px;&quot;&gt;기타 프롬프트)&lt;/font&gt;&lt;/b&gt;&lt;/div&gt;&lt;/div&gt;" style="text;html=1;align=center;verticalAlign=middle;whiteSpace=wrap;rounded=0;" parent="1" vertex="1">
          <mxGeometry x="395.01" y="-743" width="155.99" height="30" as="geometry" />
        </mxCell>
        <mxCell id="aqkRpfTvIbTsVpuNfiw0-55" value="" style="endArrow=classic;html=1;rounded=0;" parent="1" edge="1">
          <mxGeometry width="50" height="50" relative="1" as="geometry">
            <mxPoint x="389" y="-736" as="sourcePoint" />
            <mxPoint x="557.01" y="-738" as="targetPoint" />
          </mxGeometry>
        </mxCell>
        <mxCell id="aqkRpfTvIbTsVpuNfiw0-56" value="" style="rounded=0;whiteSpace=wrap;html=1;" parent="1" vertex="1">
          <mxGeometry x="887" y="-941" width="10" height="410" as="geometry" />
        </mxCell>
        <mxCell id="aqkRpfTvIbTsVpuNfiw0-57" value="" style="endArrow=none;dashed=1;html=1;rounded=0;entryX=0.5;entryY=1;entryDx=0;entryDy=0;exitX=0.5;exitY=0;exitDx=0;exitDy=0;" parent="1" source="aqkRpfTvIbTsVpuNfiw0-56" edge="1">
          <mxGeometry width="50" height="50" relative="1" as="geometry">
            <mxPoint x="877" y="-791" as="sourcePoint" />
            <mxPoint x="892" y="-1031" as="targetPoint" />
          </mxGeometry>
        </mxCell>
        <mxCell id="aqkRpfTvIbTsVpuNfiw0-58" value="&lt;b&gt;&lt;font style=&quot;font-size: 14px;&quot;&gt;AI모델&lt;/font&gt;&lt;/b&gt;" style="shape=cylinder3;whiteSpace=wrap;html=1;boundedLbl=1;backgroundOutline=1;size=15;" parent="1" vertex="1">
          <mxGeometry x="862" y="-1089" width="60" height="57" as="geometry" />
        </mxCell>
        <mxCell id="aqkRpfTvIbTsVpuNfiw0-59" value="&lt;span style=&quot;font-size: 14px;&quot;&gt;&lt;b&gt;이미지 생성 요청&lt;/b&gt;&lt;/span&gt;" style="text;html=1;align=center;verticalAlign=middle;whiteSpace=wrap;rounded=0;" parent="1" vertex="1">
          <mxGeometry x="617" y="-767" width="163" height="30" as="geometry" />
        </mxCell>
        <mxCell id="aqkRpfTvIbTsVpuNfiw0-60" value="" style="endArrow=classic;html=1;rounded=0;exitX=1.2;exitY=0.152;exitDx=0;exitDy=0;exitPerimeter=0;entryX=0;entryY=0.5;entryDx=0;entryDy=0;" parent="1" target="aqkRpfTvIbTsVpuNfiw0-56" edge="1">
          <mxGeometry width="50" height="50" relative="1" as="geometry">
            <mxPoint x="572" y="-732.5" as="sourcePoint" />
            <mxPoint x="739" y="-732.48" as="targetPoint" />
          </mxGeometry>
        </mxCell>
        <mxCell id="aqkRpfTvIbTsVpuNfiw0-63" value="" style="endArrow=classic;html=1;rounded=0;dashed=1;entryX=1.033;entryY=0.473;entryDx=0;entryDy=0;entryPerimeter=0;exitX=0.067;exitY=0.669;exitDx=0;exitDy=0;exitPerimeter=0;" parent="1" target="7Y47-iIJUgCRWdnua4mY-7" edge="1" source="aqkRpfTvIbTsVpuNfiw0-56">
          <mxGeometry width="50" height="50" relative="1" as="geometry">
            <mxPoint x="877" y="-664" as="sourcePoint" />
            <mxPoint x="708" y="-666" as="targetPoint" />
          </mxGeometry>
        </mxCell>
        <mxCell id="aqkRpfTvIbTsVpuNfiw0-64" value="&lt;b&gt;&lt;font style=&quot;font-size: 14px;&quot;&gt;Return Data&lt;/font&gt;&lt;/b&gt;&lt;div&gt;&lt;br&gt;&lt;/div&gt;" style="text;html=1;align=center;verticalAlign=middle;whiteSpace=wrap;rounded=0;" parent="1" vertex="1">
          <mxGeometry x="687" y="-653" width="90" height="30" as="geometry" />
        </mxCell>
        <mxCell id="aqkRpfTvIbTsVpuNfiw0-67" value="&lt;b&gt;&lt;font style=&quot;font-size: 14px;&quot;&gt;Return Data&lt;/font&gt;&lt;/b&gt;&lt;div&gt;&lt;b&gt;&lt;font style=&quot;font-size: 14px;&quot;&gt;(생성 된 이미지)&lt;/font&gt;&lt;/b&gt;&lt;/div&gt;" style="text;html=1;align=center;verticalAlign=middle;whiteSpace=wrap;rounded=0;" parent="1" vertex="1">
          <mxGeometry x="428.01" y="-623" width="104.99" height="30" as="geometry" />
        </mxCell>
        <mxCell id="aqkRpfTvIbTsVpuNfiw0-68" value="" style="endArrow=classic;html=1;rounded=0;dashed=1;entryX=0.857;entryY=0.531;entryDx=0;entryDy=0;entryPerimeter=0;" parent="1" edge="1">
          <mxGeometry width="50" height="50" relative="1" as="geometry">
            <mxPoint x="557" y="-632" as="sourcePoint" />
            <mxPoint x="385" y="-632" as="targetPoint" />
          </mxGeometry>
        </mxCell>
        <mxCell id="aqkRpfTvIbTsVpuNfiw0-69" value="&lt;b&gt;&lt;font style=&quot;font-size: 14px;&quot;&gt;AI시착 이미지 생성 성공&lt;/font&gt;&lt;/b&gt;" style="text;html=1;align=center;verticalAlign=middle;whiteSpace=wrap;rounded=0;" parent="1" vertex="1">
          <mxGeometry x="249" y="-596" width="112" height="30" as="geometry" />
        </mxCell>
        <mxCell id="aqkRpfTvIbTsVpuNfiw0-70" value="" style="endArrow=classic;html=1;rounded=0;dashed=1;entryX=0.857;entryY=0.531;entryDx=0;entryDy=0;entryPerimeter=0;" parent="1" edge="1">
          <mxGeometry width="50" height="50" relative="1" as="geometry">
            <mxPoint x="365" y="-605" as="sourcePoint" />
            <mxPoint x="223" y="-605" as="targetPoint" />
          </mxGeometry>
        </mxCell>
        <mxCell id="aqkRpfTvIbTsVpuNfiw0-73" value="&lt;b&gt;&lt;font style=&quot;font-size: 14px;&quot;&gt;Return Data&lt;/font&gt;&lt;/b&gt;&lt;div&gt;&lt;b&gt;&lt;font style=&quot;font-size: 14px;&quot;&gt;(result = &quot;실패&quot;)&lt;/font&gt;&lt;/b&gt;&lt;/div&gt;" style="text;html=1;align=center;verticalAlign=middle;whiteSpace=wrap;rounded=0;" parent="1" vertex="1">
          <mxGeometry x="421" y="-386" width="123.99" height="30" as="geometry" />
        </mxCell>
        <mxCell id="aqkRpfTvIbTsVpuNfiw0-74" value="" style="endArrow=classic;html=1;rounded=0;dashed=1;entryX=0.857;entryY=0.531;entryDx=0;entryDy=0;entryPerimeter=0;" parent="1" edge="1">
          <mxGeometry width="50" height="50" relative="1" as="geometry">
            <mxPoint x="559.01" y="-405" as="sourcePoint" />
            <mxPoint x="387.01" y="-405" as="targetPoint" />
          </mxGeometry>
        </mxCell>
        <mxCell id="aqkRpfTvIbTsVpuNfiw0-76" value="" style="endArrow=classic;html=1;rounded=0;dashed=1;entryX=0.857;entryY=0.531;entryDx=0;entryDy=0;entryPerimeter=0;exitX=-0.067;exitY=0.864;exitDx=0;exitDy=0;exitPerimeter=0;" parent="1" edge="1">
          <mxGeometry width="50" height="50" relative="1" as="geometry">
            <mxPoint x="372.83" y="-391.00400000000013" as="sourcePoint" />
            <mxPoint x="225" y="-390.74" as="targetPoint" />
          </mxGeometry>
        </mxCell>
        <mxCell id="aqkRpfTvIbTsVpuNfiw0-77" value="&lt;b style=&quot;&quot;&gt;&lt;font style=&quot;font-size: 14px;&quot;&gt;[이미지 생성 = NO]&lt;/font&gt;&lt;/b&gt;" style="text;html=1;align=center;verticalAlign=middle;whiteSpace=wrap;rounded=0;fontColor=#3333FF;" parent="1" vertex="1">
          <mxGeometry x="223.5" y="-451" width="145" height="30" as="geometry" />
        </mxCell>
        <mxCell id="Ja0aCd1fvxrVlTOaTn1Q-4" value="&lt;span style=&quot;font-size: 14px;&quot;&gt;&lt;b&gt;에러메세지&lt;/b&gt;&lt;/span&gt;" style="text;html=1;align=center;verticalAlign=middle;whiteSpace=wrap;rounded=0;" vertex="1" parent="1">
          <mxGeometry x="238.01" y="-382" width="123.99" height="30" as="geometry" />
        </mxCell>
        <mxCell id="Ja0aCd1fvxrVlTOaTn1Q-6" value="" style="endArrow=classic;html=1;rounded=0;exitX=1;exitY=0.69;exitDx=0;exitDy=0;exitPerimeter=0;entryX=0.467;entryY=0.64;entryDx=0;entryDy=0;entryPerimeter=0;" edge="1" parent="1">
          <mxGeometry width="50" height="50" relative="1" as="geometry">
            <mxPoint x="223.5" y="-528.7700000000001" as="sourcePoint" />
            <mxPoint x="378.1700000000001" y="-528.9999999999999" as="targetPoint" />
          </mxGeometry>
        </mxCell>
        <mxCell id="Ja0aCd1fvxrVlTOaTn1Q-7" value="&lt;b&gt;&lt;font style=&quot;font-size: 14px;&quot;&gt;AI시착 모델&amp;nbsp;&lt;/font&gt;&lt;font style=&quot;font-size: 14px;&quot;&gt;생성 요청&lt;/font&gt;&lt;/b&gt;" style="text;html=1;align=center;verticalAlign=middle;whiteSpace=wrap;rounded=0;" vertex="1" parent="1">
          <mxGeometry x="220.5" y="-558" width="159" height="30" as="geometry" />
        </mxCell>
        <mxCell id="Ja0aCd1fvxrVlTOaTn1Q-8" value="&lt;b&gt;&lt;font style=&quot;font-size: 14px;&quot;&gt;AI시착 모델&amp;nbsp;&lt;/font&gt;&lt;font style=&quot;font-size: 14px;&quot;&gt;생성 요청&lt;/font&gt;&lt;/b&gt;&lt;div&gt;&lt;span style=&quot;font-size: 14px;&quot;&gt;&lt;b&gt;(AI시착 이미지, 상의 제품, 하의 제품, 사용자 코드, 공유 여부)&lt;/b&gt;&lt;/span&gt;&lt;/div&gt;" style="text;html=1;align=center;verticalAlign=middle;whiteSpace=wrap;rounded=0;" vertex="1" parent="1">
          <mxGeometry x="395.01" y="-514" width="159" height="30" as="geometry" />
        </mxCell>
        <mxCell id="Ja0aCd1fvxrVlTOaTn1Q-10" value="" style="endArrow=classic;html=1;rounded=0;exitX=1;exitY=0.69;exitDx=0;exitDy=0;exitPerimeter=0;entryX=0.3;entryY=0.729;entryDx=0;entryDy=0;entryPerimeter=0;" edge="1" parent="1" target="7Y47-iIJUgCRWdnua4mY-7">
          <mxGeometry width="50" height="50" relative="1" as="geometry">
            <mxPoint x="389" y="-515.7700000000001" as="sourcePoint" />
            <mxPoint x="543.6700000000001" y="-515.9999999999999" as="targetPoint" />
          </mxGeometry>
        </mxCell>
        <mxCell id="Ja0aCd1fvxrVlTOaTn1Q-11" value="" style="endArrow=classic;html=1;rounded=0;exitX=1;exitY=0.69;exitDx=0;exitDy=0;exitPerimeter=0;" edge="1" parent="1">
          <mxGeometry width="50" height="50" relative="1" as="geometry">
            <mxPoint x="572" y="-509.7700000000001" as="sourcePoint" />
            <mxPoint x="802" y="-512" as="targetPoint" />
          </mxGeometry>
        </mxCell>
        <mxCell id="Ja0aCd1fvxrVlTOaTn1Q-12" value="&lt;b&gt;&lt;font style=&quot;font-size: 14px;&quot;&gt;DB API&lt;/font&gt;&lt;/b&gt;" style="text;html=1;align=center;verticalAlign=middle;whiteSpace=wrap;rounded=0;" vertex="1" parent="1">
          <mxGeometry x="652" y="-549" width="150" height="30" as="geometry" />
        </mxCell>
      </root>
    </mxGraphModel>
  </diagram>
</mxfile>
